<svg class="w-8 h-8" viewBox="0 0 17.5 24" xmlns="http://www.w3.org/2000/svg">
    <path d="M11.47,12.53c.02-.41-.3-.77-.71-.79-.41-.02-.77.3-.79.71l-.22,4.56c-.02.41.3.77.71.79s.77-.3.79-.71c0,0,.22-4.56.22-4.56Z"
          fill="#343c54"/>
    <path d="M6.74,11.74c-.41.02-.73.37-.71.79l.22,4.56c.02.41.37.73.79.71.41-.02.73-.37.71-.79l-.22-4.56c-.02-.41-.37-.73-.79-.71Z"
          fill="#343c54"/>
    <path d="M7,1.77c-1.24,0-2.25,1.01-2.25,2.25v.75h-2.5c-1.24,0-2.25,1.01-2.25,2.25,0,1.04.71,1.91,1.66,2.17l.63,10.46c.07,1.19,1.06,2.12,2.25,2.12h8.42c1.19,0,2.17-.93,2.25-2.12l.63-10.46c.96-.26,1.66-1.13,1.66-2.17,0-1.24-1.01-2.25-2.25-2.25h-2.5v-.75c0-1.24-1.01-2.25-2.25-2.25,0,0-3.5,0-3.5,0ZM11.25,4.77v-.75c0-.41-.34-.75-.75-.75h-3.5c-.41,0-.75.34-.75.75v.75h5ZM2.25,6.27c-.41,0-.75.34-.75.75s.34.75.75.75h13c.41,0,.75-.34.75-.75s-.34-.75-.75-.75H2.25ZM3.17,9.27h11.16l-.62,10.29c-.02.4-.35.71-.75.71H4.54c-.4,0-.72-.31-.75-.71,0,0-.62-10.29-.62-10.29Z"
          fill="#343c54" fill-rule="evenodd"/>
    <circle cx="15.45" cy="4.7" r="4.2" fill="#fff" stroke="#343c54" stroke-miterlimit="10"/>
    <line x1="15.45" y1="2.05" x2="15.45" y2="5.49" fill="none" stroke="#343c54"
          stroke-miterlimit="10"/>
    <ellipse cx="15.45" cy="6.83" rx=".6" ry=".6" fill="#343c54"/>
</svg>