<svg xmlns="http://www.w3.org/2000/svg" viewBox="0 17.450000762939453 53 35.64999771118164" data-asc="1.046" width="53" height="35.64999771118164"><defs/><g fill="#000000"><g transform="translate(0, 0)"><path d="M10.75 52.30L10.75 21.30L0 21.30L0 18.20L25.20 18.20L25.20 21.30L14.45 21.30L14.45 52.30L10.75 52.30ZM41.30 53.10Q37.55 53.10 34 51.23Q30.45 49.35 28.10 46.15L31.15 43.45Q32.95 46.30 35.75 47.98Q38.55 49.65 41.80 49.65Q45.35 49.65 47.20 48.08Q49.05 46.50 49.05 43.80Q49.05 40.85 47.08 39.28Q45.10 37.70 40.80 36.50Q30.00 33.85 30.00 26.70Q30.00 22.25 32.90 19.85Q35.80 17.45 40.95 17.45Q44.70 17.45 47.68 18.85Q50.65 20.25 53 23.15L50.05 25.65Q48.25 23.20 46.10 22.03Q43.95 20.85 40.95 20.85Q37.80 20.85 35.80 22.33Q33.80 23.80 33.80 26.35Q33.80 28.95 35.65 30.48Q37.50 32 41.90 33.05Q47.10 34.45 49.98 36.90Q52.85 39.35 52.85 43.80Q52.85 46.55 51.45 48.65Q50.05 50.75 47.43 51.93Q44.80 53.10 41.30 53.10Z"/></g></g></svg>